<svg xmlns="http://www.w3.org/2000/svg" viewBox="0 0 365.36 129.7"><path fill="#9a9fa5" d="M64.41 33.7h45.45v55.4H64.41zm-48.32 0h45.45v55.4H16.09z"/><path fill="#7c8187" opacity=".9" d="M161.05 31.4h45.45v57.7h-45.45z"/><path fill="#7c8187" d="M209.38 26.35h45.45v62.76h-45.45zm48.32-3.71h45.45v66.47H257.7z"/><path fill="#ced1d3" d="M306.02 37.53h45.45V89.1h-45.45zm-193.29 6.13h45.45v45.45h-45.45z"/><path d="M227 97.64V106h-1.09v-6.68l-2.68 6.68h-1l-2.66-6.61V106h-1.09v-8.36h1.3l3 7 2.9-7zm7.32 2.05a3 3 0 011.17 1.18 3.58 3.58 0 01.43 1.8 3.52 3.52 0 01-.43 1.79 2.87 2.87 0 01-1.17 1.17 3.73 3.73 0 01-3.4 0 3 3 0 01-1.18-1.17 3.52 3.52 0 01-.43-1.79 3.58 3.58 0 01.43-1.8 3 3 0 011.18-1.18 3.81 3.81 0 013.4 0zm-2.79.82a2 2 0 00-.8.81 3.07 3.07 0 000 2.69 2 2 0 00.8.81 2.4 2.4 0 001.09.26 2.33 2.33 0 001.08-.26 2 2 0 00.81-.81 3.17 3.17 0 000-2.69 2 2 0 00-.81-.81 2.21 2.21 0 00-1.08-.26 2.28 2.28 0 00-1.09.26zm12.05-.51a3 3 0 01.7 2.13V106h-1.09v-3.73a2.16 2.16 0 00-.5-1.52 1.81 1.81 0 00-1.37-.52 1.86 1.86 0 00-1.44.58 2.41 2.41 0 00-.54 1.7V106h-1.09v-6.63h1.09v1.56a2.24 2.24 0 01.89-1.24 2.67 2.67 0 011.48-.43 2.5 2.5 0 011.87.74zm31.1-2.5v.89h-2.39V106h-1.09v-7.61h-2.39v-.89zm7.83 1.87V106h-1.09v-1.55a2.18 2.18 0 01-.89 1.23 2.69 2.69 0 01-1.5.43 2.43 2.43 0 01-1.84-.74 2.91 2.91 0 01-.71-2.12v-3.88h1.09v3.73a2.16 2.16 0 00.5 1.52 1.79 1.79 0 001.37.53 1.86 1.86 0 001.44-.58 2.41 2.41 0 00.54-1.7v-3.5zm8.67 3.53h-5.27a2.31 2.31 0 00.64 1.69 2.09 2.09 0 001.48.56 2.14 2.14 0 001.33-.4 1.63 1.63 0 00.65-1.07h1.17a2.75 2.75 0 01-.54 1.22 2.71 2.71 0 01-1.07.84 3.57 3.57 0 01-1.49.3 3.32 3.32 0 01-1.68-.41 2.8 2.8 0 01-1.14-1.17 3.62 3.62 0 01-.42-1.79 3.68 3.68 0 01.42-1.8 2.88 2.88 0 011.14-1.18 3.42 3.42 0 011.68-.4 3.37 3.37 0 011.68.4 2.88 2.88 0 011.09 1.1 3.08 3.08 0 01.38 1.51 3.45 3.45 0 01-.05.6zm-1.3-1.75a1.73 1.73 0 00-.75-.74 2.31 2.31 0 00-1.05-.24 2.17 2.17 0 00-1.51.56 2.23 2.23 0 00-.66 1.64h4.21a2.11 2.11 0 00-.24-1.22zm35.74-3.65l-2.15 8.5h-1.33l-1.95-6.91-2 6.91h-1.29l-2.16-8.46H316l1.62 7.19 2-7.19h1.22l2 7.16 1.63-7.16zm8.2 5.4h-5.27a2.31 2.31 0 00.64 1.69 2.09 2.09 0 001.48.56 2.14 2.14 0 001.33-.4 1.63 1.63 0 00.65-1.07h1.17a2.75 2.75 0 01-.54 1.22 2.71 2.71 0 01-1.07.84 3.57 3.57 0 01-1.49.3 3.32 3.32 0 01-1.68-.41 2.8 2.8 0 01-1.14-1.17 3.62 3.62 0 01-.42-1.79 3.68 3.68 0 01.42-1.8 2.88 2.88 0 011.1-1.18 3.42 3.42 0 011.68-.4 3.37 3.37 0 011.68.4 2.88 2.88 0 011.09 1.1 3.08 3.08 0 01.38 1.51 3.45 3.45 0 01-.01.6zm-1.3-1.75a1.73 1.73 0 00-.75-.74 2.31 2.31 0 00-1-.24 2.17 2.17 0 00-1.51.56 2.23 2.23 0 00-.66 1.64h4.21a2.11 2.11 0 00-.29-1.22zm8-1.38a2.52 2.52 0 01.93 1.28v-4h1.09V106h-1.09v-1.68a2.56 2.56 0 01-.93 1.28 2.71 2.71 0 01-1.63.48 2.93 2.93 0 01-1.56-.41 2.83 2.83 0 01-1.07-1.17 3.84 3.84 0 01-.39-1.79 3.92 3.92 0 01.39-1.8 2.92 2.92 0 011.07-1.18 3 3 0 011.56-.4 2.71 2.71 0 011.63.44zm-2.93 1.13a2.91 2.91 0 000 3.54 2.12 2.12 0 001.62.64 2.22 2.22 0 001.15-.3 2.09 2.09 0 00.8-.84 2.93 2.93 0 000-2.54 2.05 2.05 0 00-.8-.85 2.31 2.31 0 00-1.15-.29 2.12 2.12 0 00-1.62.64zM30.81 97.8v.89h-2.39v7.57h-1.09v-7.57h-2.39v-.89zm7.31 2.5a3 3 0 01.71 2.13v3.83h-1.09v-3.73a2.07 2.07 0 00-.51-1.51 1.76 1.76 0 00-1.37-.53 1.86 1.86 0 00-1.44.58 2.41 2.41 0 00-.54 1.7v3.49h-1.09v-8.88h1.09v3.85a2.23 2.23 0 01.9-1.23 2.58 2.58 0 011.48-.44 2.46 2.46 0 011.86.74zm9.14-.63v6.59h-1.09v-1.55a2.23 2.23 0 01-.89 1.23 2.62 2.62 0 01-1.5.43 2.43 2.43 0 01-1.84-.74 2.91 2.91 0 01-.71-2.12v-3.84h1.09v3.73a2.14 2.14 0 00.5 1.52 1.79 1.79 0 001.37.54 1.87 1.87 0 001.44-.59 2.38 2.38 0 00.54-1.69v-3.51zm35.36-1.87v.89h-3.7v2.93h3.14v.85h-3.14v3.79h-1.09V97.8zm4.24 2.14a2.81 2.81 0 011.48-.38v1.19H88a2.3 2.3 0 00-1.51.48 1.85 1.85 0 00-.59 1.56v3.47h-1.08v-6.59h1.09V101a2.38 2.38 0 01.95-1.06zm3.48-2.69a.77.77 0 01.54-.18.8.8 0 01.54.18.7.7 0 010 1 .8.8 0 01-.54.18.77.77 0 01-.54-.18.68.68 0 010-1zm1.08 2.42v6.59h-1.1v-6.59zm37.21 5.51a2.2 2.2 0 01-.87.84 2.93 2.93 0 01-1.45.32 3.59 3.59 0 01-1.5-.3 2.72 2.72 0 01-1-.84 2.38 2.38 0 01-.45-1.22h1.16a1.6 1.6 0 00.25.7 1.65 1.65 0 00.6.57 2 2 0 00.94.22 1.46 1.46 0 001.1-.39 1.3 1.3 0 00.39-1 1.28 1.28 0 00-.27-.84 1.87 1.87 0 00-.67-.51 8.59 8.59 0 00-1.08-.4 11.78 11.78 0 01-1.29-.5 2.31 2.31 0 01-.83-.7 2.35 2.35 0 010-2.4 2.05 2.05 0 01.91-.78 3.21 3.21 0 011.4-.28 3 3 0 012 .61 2.3 2.3 0 01.85 1.54h-1.17a1.58 1.58 0 00-1.66-1.27 1.57 1.57 0 00-1.06.34 1.22 1.22 0 00-.39 1 1.14 1.14 0 00.26.79 1.62 1.62 0 00.64.48 8.09 8.09 0 001 .39 10.88 10.88 0 011.32.51 2.22 2.22 0 01.84.72 2.14 2.14 0 01.35 1.29 2.18 2.18 0 01-.32 1.11zm6.98-5.11a2.45 2.45 0 01.93 1.28v-1.68h1.09v6.59h-1.09v-1.68a2.41 2.41 0 01-.93 1.28 2.7 2.7 0 01-1.62.48 3 3 0 01-1.57-.4 3 3 0 01-1.07-1.17 4.35 4.35 0 010-3.6 2.83 2.83 0 011.07-1.17 2.94 2.94 0 011.57-.41 2.7 2.7 0 011.62.48zm-2.93 1.13a2.91 2.91 0 000 3.54 2.12 2.12 0 001.62.64 2.25 2.25 0 001.16-.3 2.13 2.13 0 00.79-.84 2.93 2.93 0 000-2.54 2.1 2.1 0 00-.79-.85 2.35 2.35 0 00-1.16-.29 2.12 2.12 0 00-1.62.64zm10.74 4.1v1h-.82a2.08 2.08 0 01-1.5-.48 2.14 2.14 0 01-.5-1.61v-3.55h-1v-1h1V98h1.1v1.64h1.71v1h-1.71v3.58a1.22 1.22 0 00.24.87 1.14 1.14 0 00.81.23zm32.63-.12a2.17 2.17 0 01-.88.84 2.91 2.91 0 01-1.45.32 3.51 3.51 0 01-1.49-.3 2.76 2.76 0 01-1-.84 2.38 2.38 0 01-.45-1.22h1.17a1.58 1.58 0 00.24.7 1.65 1.65 0 00.6.57 2 2 0 00.95.22 1.48 1.48 0 001.1-.39 1.45 1.45 0 00.11-1.82 1.84 1.84 0 00-.66-.51 10 10 0 00-1.08-.4 10.36 10.36 0 01-1.29-.5 2.23 2.23 0 01-.83-.7 2.35 2.35 0 010-2.4 2 2 0 01.91-.78 3.18 3.18 0 011.4-.28 3 3 0 012 .61 2.34 2.34 0 01.85 1.54H175a1.56 1.56 0 00-.51-.89 1.65 1.65 0 00-1.14-.38 1.55 1.55 0 00-1.06.34 1.23 1.23 0 00-.4 1 1.19 1.19 0 00.26.79 1.69 1.69 0 00.64.48 9 9 0 001.06.39 11.32 11.32 0 011.31.51 2.18 2.18 0 01.85.72 2.21 2.21 0 01.35 1.29 2.28 2.28 0 01-.31 1.09zm8.51-5.51v6.59h-1.09v-1.55a2.2 2.2 0 01-.9 1.23 2.58 2.58 0 01-1.49.43 2.46 2.46 0 01-1.85-.74 3 3 0 01-.71-2.12v-3.84h1.09v3.73a2.1 2.1 0 00.51 1.52 1.77 1.77 0 001.37.54 1.87 1.87 0 001.44-.59 2.38 2.38 0 00.54-1.69v-3.51zm7.98.63a3 3 0 01.71 2.13v3.83h-1.1v-3.73a2.07 2.07 0 00-.5-1.51 1.78 1.78 0 00-1.37-.53 1.86 1.86 0 00-1.44.58 2.41 2.41 0 00-.54 1.7v3.49h-1.09v-6.59h1.09v1.56a2.23 2.23 0 01.9-1.23 2.56 2.56 0 011.48-.44 2.46 2.46 0 011.86.74z"/></svg>