<svg xmlns="http://www.w3.org/2000/svg" viewBox="0 0 365.36 129"><text transform="translate(132.05 -12.65)" font-size="23.001" font-family="Poppins-SemiBold,Poppins" font-weight="600">504K</text><text transform="translate(223.12 -12.65)" font-size="23.001" font-family="Poppins-SemiBold,Poppins" font-weight="600">910</text><text transform="translate(62.44 -12.65)" font-size="23.001" font-family="Poppins-SemiBold,Poppins" font-weight="600">874</text><path d="M62.25 92.11a18.16 18.16 0 013-.23 4.91 4.91 0 013.34 1 3.21 3.21 0 011 2.5 3.5 3.5 0 01-.92 2.54 4.92 4.92 0 01-3.67 1.3 5.82 5.82 0 01-1.24-.1v4.77h-1.51zm1.54 5.75a5.06 5.06 0 001.27.12c1.86 0 3-.9 3-2.54s-1.11-2.34-2.81-2.34a6.38 6.38 0 00-1.45.13zm7.53.14c0-1 0-1.87-.07-2.67h1.36v1.68h.07a2.57 2.57 0 012.37-1.87 1.48 1.48 0 01.44 0v1.47a2 2 0 00-.53 0 2.18 2.18 0 00-2.08 2 4 4 0 00-.07.73v4.56h-1.49zm13.35 1.54a4.19 4.19 0 01-4.26 4.55 4.08 4.08 0 01-4.11-4.41 4.18 4.18 0 014.25-4.54c2.45 0 4.12 1.78 4.12 4.4zm-6.79.09c0 1.87 1.08 3.29 2.6 3.29s2.6-1.4 2.6-3.33c0-1.45-.73-3.29-2.57-3.29s-2.63 1.7-2.63 3.33zm8.75-1.98c0-.89 0-1.61-.07-2.32h1.36l.08 1.38a3 3 0 012.69-1.57 2.52 2.52 0 012.42 1.71 3.5 3.5 0 011-1.11 2.94 2.94 0 011.9-.6c1.13 0 2.81.74 2.81 3.71v5h-1.49v-4.8c0-1.65-.61-2.64-1.86-2.64a2 2 0 00-1.84 1.42 2.54 2.54 0 00-.12.77v5.29H92v-5.13c0-1.36-.61-2.35-1.79-2.35A2.14 2.14 0 0088.27 98a2.09 2.09 0 00-.12.76v5.16h-1.52zm22.49 1.89a4.19 4.19 0 01-4.27 4.55 4.07 4.07 0 01-4.1-4.41 4.18 4.18 0 014.25-4.54 4.05 4.05 0 014.12 4.4zm-6.79.09c0 1.87 1.07 3.29 2.59 3.29s2.6-1.4 2.6-3.33c0-1.45-.72-3.29-2.56-3.29s-2.63 1.7-2.63 3.33zM113 92.87v2.46h2.23v1.19H113v4.61c0 1.06.3 1.66 1.17 1.66a3.72 3.72 0 00.9-.1l.07 1.17a3.91 3.91 0 01-1.38.21 2.15 2.15 0 01-1.68-.66 3.17 3.17 0 01-.6-2.22v-4.67h-1.38v-1.19h1.33v-2zm5.66.06a1 1 0 01-1.93 0 1 1 0 011-1 .93.93 0 01.93 1zm-1.73 11v-8.6h1.55v8.56zm11.88-4.39a4.18 4.18 0 01-4.26 4.55 4.08 4.08 0 01-4.11-4.41 4.18 4.18 0 014.25-4.54c2.46 0 4.12 1.78 4.12 4.4zm-6.79.09c0 1.87 1.08 3.29 2.6 3.29s2.6-1.4 2.6-3.33c0-1.45-.73-3.29-2.57-3.29S122 98 122 99.63zm8.75-1.98c0-.89 0-1.61-.07-2.32h1.38l.09 1.42a3.14 3.14 0 012.83-1.61c1.18 0 3 .7 3 3.64v5.11h-1.5V99c0-1.38-.52-2.53-2-2.53a2.29 2.29 0 00-2.2 2.31v5.15h-1.55zm9.6 4.65a4.07 4.07 0 002 .62c1.13 0 1.66-.57 1.66-1.27s-.44-1.15-1.59-1.58c-1.54-.55-2.26-1.4-2.26-2.42 0-1.38 1.11-2.51 3-2.51a4.18 4.18 0 012.1.53l-.39 1.13a3.31 3.31 0 00-1.75-.5c-.92 0-1.43.54-1.43 1.17s.51 1 1.63 1.45c1.48.57 2.24 1.31 2.24 2.58 0 1.51-1.16 2.57-3.2 2.57a4.81 4.81 0 01-2.4-.59z"/><rect x="28.85" y="83.94" width="150.13" height="28.09" rx="5.79" fill="none" stroke="#c6c6c6" stroke-miterlimit="10"/><path d="M229.09 98.49h-4.64v4.3h5.17v1.29h-6.71V92.16h6.44v1.29h-4.9v3.77h4.64zm9.79-6.97v10.35c0 .76 0 1.62.07 2.21h-1.4l-.07-1.49a3.16 3.16 0 01-2.92 1.68c-2.07 0-3.66-1.75-3.66-4.35 0-2.85 1.75-4.6 3.84-4.6a2.86 2.86 0 012.58 1.31v-5.11zM237.32 99a2.4 2.4 0 00-.07-.65 2.29 2.29 0 00-2.25-1.81c-1.61 0-2.57 1.42-2.57 3.31 0 1.73.85 3.17 2.53 3.17a2.33 2.33 0 002.28-1.86 2.42 2.42 0 00.07-.67zm5.87-5.89a.92.92 0 01-1 1 .93.93 0 01-.94-1 1 1 0 011-1 .92.92 0 01.94 1zm-1.73 11v-8.59H243v8.56zm6.01-11.05v2.46h2.23v1.18h-2.23v4.62c0 1.06.3 1.66 1.17 1.66a3.2 3.2 0 00.9-.11l.07 1.17a3.69 3.69 0 01-1.38.21 2.16 2.16 0 01-1.68-.65 3.18 3.18 0 01-.6-2.23V96.7h-1.33v-1.18H246v-2zm7.78-.76a18.16 18.16 0 012.95-.23 4.88 4.88 0 013.34 1 3.19 3.19 0 011 2.49 3.52 3.52 0 01-.92 2.55 4.94 4.94 0 01-3.62 1.3 5.25 5.25 0 01-1.24-.11v4.78h-1.53zm1.53 5.75a5.2 5.2 0 001.28.12c1.85 0 3-.9 3-2.55s-1.12-2.33-2.82-2.33a6.61 6.61 0 00-1.45.12zm7.53.14c0-1 0-1.88-.07-2.67h1.37l.05 1.68h.07a2.58 2.58 0 012.37-1.88 1.51 1.51 0 01.44.06v1.46a2.73 2.73 0 00-.53 0 2.19 2.19 0 00-2.09 2 5 5 0 00-.07.72v4.57h-1.54zm13.35 1.54a4.18 4.18 0 01-4.26 4.54 4.07 4.07 0 01-4.1-4.4c0-2.87 1.87-4.55 4.24-4.55s4.12 1.79 4.12 4.41zm-6.79.08c0 1.88 1.08 3.29 2.6 3.29s2.6-1.39 2.6-3.32c0-1.45-.72-3.29-2.56-3.29s-2.64 1.7-2.64 3.32zm8.91 4.27V96.7h-1.2v-1.18h1.2v-.46a3.43 3.43 0 013.73-3.73 4.27 4.27 0 012.18.56l-.44 1.19a3.25 3.25 0 00-1.81-.5c-1.64 0-2.12 1.15-2.12 2.51v.43h5v8.56h-1.54V96.7h-3.43v7.38zm9.09-12.56h1.56v12.56h-1.56zm5.04 8.56a2.74 2.74 0 002.93 3 5.56 5.56 0 002.37-.44l.27 1.11a6.92 6.92 0 01-2.85.53 4 4 0 01-4.21-4.31c0-2.58 1.52-4.62 4-4.62 2.79 0 3.53 2.46 3.53 4a5.59 5.59 0 01-.05.72zm4.56-1.08a2.22 2.22 0 00-2.16-2.53 2.59 2.59 0 00-2.39 2.53z"/><rect x="186.38" y="83.76" width="150.13" height="28.09" rx="5.79" fill="none" stroke="#c6c6c6" stroke-miterlimit="10"/><path d="M157.67 22.39H150v4.09a3.86 3.86 0 011.47-1 5.42 5.42 0 012-.38 5 5 0 012.8.73 4.36 4.36 0 011.65 1.93 6.48 6.48 0 01.55 2.68A5.82 5.82 0 01157 34.6a5.43 5.43 0 01-4.17 1.57 6.89 6.89 0 01-3.08-.64 4.87 4.87 0 01-2-1.77 5.27 5.27 0 01-.81-2.65h3.16a2.77 2.77 0 00.85 1.64 2.49 2.49 0 001.77.61 2.39 2.39 0 002-.82 3.34 3.34 0 00.65-2.17 2.75 2.75 0 00-.69-2 2.57 2.57 0 00-1.95-.71 2.91 2.91 0 00-1.57.4 2.43 2.43 0 00-.94 1.07H147v-9.59h10.65zm2.94 5.45q0-8.23 6.21-8.23a5.23 5.23 0 014.74 2.2 10.87 10.87 0 011.45 6 10.9 10.9 0 01-1.45 6.05 5.24 5.24 0 01-4.74 2.21q-6.21.03-6.21-8.23zm9.2 0a9.49 9.49 0 00-.61-3.84 2.35 2.35 0 00-2.38-1.35 2.38 2.38 0 00-2.4 1.35 9.49 9.49 0 00-.61 3.83 9.54 9.54 0 00.61 3.85 2.38 2.38 0 002.4 1.35 2.35 2.35 0 002.38-1.35 9.54 9.54 0 00.61-3.84zm5.19 4.99v-2.69l7.77-10.47h3.47V30h2.12v2.81h-2.12v3.29H183v-3.27zm8.23-9.36L178.28 30h4.92zm13.61 4.37l6.88 8.26h-3.94l-6-7.43v7.43h-3.24V19.86h3.24v7.29l6-7.29h3.91z"/><path d="M144.35 50.67h5.83v1.17h-4.43v3.6h4.09v1.16h-4.09v4.9h-1.4zm14.32 6.88a3.81 3.81 0 01-3.88 4.13 3.7 3.7 0 01-3.72-4 3.79 3.79 0 013.85-4.13 3.68 3.68 0 013.75 4zm-6.17.08c0 1.7 1 3 2.36 3s2.36-1.27 2.36-3c0-1.32-.66-3-2.33-3s-2.39 1.52-2.39 3zm7.95-7.54h1.42V61.5h-1.42zm3.8 0h1.41V61.5h-1.41zm10.83 7.46a3.81 3.81 0 01-3.88 4.13 3.7 3.7 0 01-3.72-4 3.79 3.79 0 013.85-4.13 3.68 3.68 0 013.75 4zm-6.17.08c0 1.7 1 3 2.36 3s2.36-1.27 2.36-3c0-1.32-.66-3-2.33-3s-2.39 1.52-2.39 3zm8.4-3.91l1 4c.23.86.44 1.67.58 2.47h.11c.18-.79.43-1.62.69-2.46l1.27-4h1.19l1.2 3.89c.29.93.52 1.75.69 2.54h.05a22.65 22.65 0 01.6-2.52l1.1-3.91h1.4l-2.5 7.78h-1.29l-1.19-3.71a26 26 0 01-.69-2.56 20.43 20.43 0 01-.71 2.57l-1.25 3.7h-1.29l-2.34-7.78zm11.9 4.15a2.49 2.49 0 002.66 2.7 5.2 5.2 0 002.16-.4l.24 1a6.4 6.4 0 01-2.59.48 3.61 3.61 0 01-3.82-3.92c0-2.35 1.38-4.19 3.64-4.19 2.54 0 3.22 2.23 3.22 3.66a4.67 4.67 0 01-.05.66zm4.14-1a2 2 0 00-2-2.3 2.34 2.34 0 00-2.17 2.3zm3.12-.72c0-.92 0-1.7-.06-2.43h1.23l.05 1.53h.07a2.33 2.33 0 012.15-1.7 1.64 1.64 0 01.4 0v1.34a2.21 2.21 0 00-.48 0 2 2 0 00-1.9 1.82 4.12 4.12 0 00-.06.65v4.14h-1.4zm5.06 3.9a3.66 3.66 0 001.87.57c1 0 1.51-.52 1.51-1.16s-.4-1-1.45-1.43c-1.4-.5-2.06-1.27-2.06-2.2a2.4 2.4 0 012.69-2.28A3.82 3.82 0 01206 54l-.35 1a3 3 0 00-1.59-.45c-.84 0-1.31.48-1.31 1.06s.47.93 1.48 1.31c1.35.52 2 1.19 2 2.35 0 1.37-1.06 2.33-2.91 2.33a4.44 4.44 0 01-2.18-.53z" fill="#565656"/><path d="M259.48 22.8v-3h5.84V36h-3.4V22.8zm14.31 10.77a2.43 2.43 0 002.32-1.42 9.77 9.77 0 00.62-4.43 3.18 3.18 0 01-1.44 1.76 4.63 4.63 0 01-2.49.66 4.84 4.84 0 01-3.7-1.42 5.61 5.61 0 01-1.34-4 6.12 6.12 0 01.64-2.84 4.67 4.67 0 011.92-2 6.34 6.34 0 013.1-.71q3.54 0 4.87 2.15a11.31 11.31 0 011.34 6 13 13 0 01-1.35 6.6 4.82 4.82 0 01-4.49 2.26 5.93 5.93 0 01-2.89-.67 4.7 4.7 0 01-1.9-1.82 6 6 0 01-.78-2.52h3c.33 1.6 1.15 2.4 2.57 2.4zm1.92-10.76a2.79 2.79 0 00-2.2-.84 2.68 2.68 0 00-2 .74 2.76 2.76 0 00-.73 2.05 2.88 2.88 0 00.74 2.13 2.76 2.76 0 002 .74 3.09 3.09 0 002-.7 2.4 2.4 0 00.86-2 3.12 3.12 0 00-.67-2.12zm13.62 1.67a2.59 2.59 0 00-.51-1.7 2 2 0 00-1.63-.62c-1.51 0-2.32 1-2.41 3.1h-3.15a6 6 0 011.75-4.36 5.81 5.81 0 014.07-1.48 5.31 5.31 0 013.85 1.3 4.59 4.59 0 011.35 3.46 6.79 6.79 0 01-1 3.42 14 14 0 01-2.55 3.15 19.3 19.3 0 01-3.24 2.47H293v2.65h-11.46v-2.42q7.79-5.4 7.79-8.97z"/><path d="M244.42 50.67h5.83v1.17h-4.43v3.6h4.09v1.16h-4.09v4.9h-1.4zm14.32 6.88a3.81 3.81 0 01-3.88 4.13 3.7 3.7 0 01-3.72-4 3.79 3.79 0 013.86-4.13 3.68 3.68 0 013.74 4zm-6.17.08c0 1.7 1 3 2.36 3s2.36-1.27 2.36-3c0-1.32-.66-3-2.33-3s-2.39 1.52-2.39 3zm7.95-7.54h1.42V61.5h-1.42zm3.8 0h1.41V61.5h-1.41zm10.83 7.46a3.81 3.81 0 01-3.88 4.13 3.7 3.7 0 01-3.72-4 3.79 3.79 0 013.85-4.13 3.68 3.68 0 013.75 4zm-6.17.08c0 1.7 1 3 2.36 3s2.36-1.27 2.36-3c0-1.32-.66-3-2.33-3s-2.37 1.52-2.37 3zm8.4-3.91l1 4c.23.86.43 1.67.58 2.47h.04c.17-.79.43-1.62.69-2.46l1.27-4h1.19l1.2 3.89c.29.93.52 1.75.69 2.54h.05a22.65 22.65 0 01.6-2.52l1.1-3.91h1.4l-2.5 7.78h-1.29l-1.19-3.71a26 26 0 01-.69-2.56 24.49 24.49 0 01-.71 2.57l-1.25 3.7h-1.29l-2.34-7.78zm12.84-2.18a.83.83 0 01-.9.87.85.85 0 01-.85-.87.87.87 0 01.89-.89.84.84 0 01.86.89zm-1.57 10v-7.82h1.41v7.78zm3.76-5.71c0-.81 0-1.46-.06-2.11h1.25l.08 1.29a2.87 2.87 0 012.57-1.46c1.08 0 2.75.64 2.75 3.31v4.64h-1.41V57c0-1.26-.47-2.3-1.8-2.3a2 2 0 00-1.9 1.45 2.06 2.06 0 00-.1.65v4.7h-1.41zM308 53.72c0 .57-.06 1.19-.06 2.14v4.52c0 1.78-.36 2.87-1.11 3.55a4.17 4.17 0 01-2.83.93 5.12 5.12 0 01-2.59-.64l.36-1.08a4.36 4.36 0 002.28.61c1.44 0 2.5-.76 2.5-2.72v-.86a2.78 2.78 0 01-2.47 1.3c-1.93 0-3.31-1.64-3.31-3.79 0-2.64 1.72-4.13 3.5-4.13a2.58 2.58 0 012.43 1.35l.06-1.18zm-1.46 3.07a2.12 2.12 0 00-.08-.64 2 2 0 00-2-1.49c-1.35 0-2.31 1.14-2.31 2.94 0 1.52.77 2.79 2.29 2.79a2.08 2.08 0 002-1.44 2.54 2.54 0 00.11-.76zM57.82 50.8a16.41 16.41 0 012.68-.21 4.43 4.43 0 013 .9 2.89 2.89 0 01.95 2.27 3.16 3.16 0 01-.84 2.31 4.47 4.47 0 01-3.31 1.19 4.81 4.81 0 01-1.12-.1v4.34h-1.4zm1.4 5.2a4.66 4.66 0 001.15.11c1.69 0 2.72-.82 2.72-2.31s-1-2.12-2.55-2.12a6.21 6.21 0 00-1.32.11zM73 57.55a3.8 3.8 0 01-3.87 4.13 3.7 3.7 0 01-3.73-4 3.79 3.79 0 013.85-4.13 3.68 3.68 0 013.75 4zm-6.17.08c0 1.7 1 3 2.36 3s2.36-1.27 2.36-3c0-1.32-.66-3-2.33-3s-2.43 1.52-2.43 3zm7.72 2.42a3.66 3.66 0 001.87.57c1 0 1.51-.52 1.51-1.16s-.41-1-1.45-1.43c-1.4-.5-2.06-1.27-2.06-2.2a2.4 2.4 0 012.69-2.28A3.88 3.88 0 0179 54l-.35 1a3 3 0 00-1.6-.45c-.83 0-1.3.48-1.3 1.06s.47.93 1.48 1.31c1.35.52 2 1.19 2 2.35 0 1.37-1.06 2.33-2.91 2.33a4.42 4.42 0 01-2.18-.53zm8.26-8.56v2.23h2v1.08h-2V59c0 1 .28 1.51 1.06 1.51a3.09 3.09 0 00.82-.09l.07 1.06a3.58 3.58 0 01-1.26.19 2 2 0 01-1.5-.6 2.85 2.85 0 01-.55-2V54.8h-1.2v-1.08h1.2v-1.86zm3.43 8.56a3.59 3.59 0 001.86.57c1 0 1.51-.52 1.51-1.16s-.4-1-1.45-1.43c-1.39-.5-2-1.27-2-2.2a2.39 2.39 0 012.68-2.28 3.82 3.82 0 011.86.45l-.35 1a3 3 0 00-1.59-.45c-.84 0-1.3.48-1.3 1.06s.46.93 1.48 1.31c1.34.52 2 1.19 2 2.35 0 1.37-1.07 2.33-2.91 2.33a4.48 4.48 0 01-2.19-.53z" fill="#565656"/><path d="M66.46 22l-5.93 14h-3.36l6-13.59h-7.52v-2.78h10.81zM74 33.57a2.42 2.42 0 002.32-1.42 9.5 9.5 0 00.62-4.43 3.16 3.16 0 01-1.43 1.76 4.69 4.69 0 01-2.5.66 4.84 4.84 0 01-3.69-1.42 5.57 5.57 0 01-1.35-4 6.12 6.12 0 01.65-2.84 4.67 4.67 0 011.92-2 6.3 6.3 0 013.09-.71q3.54 0 4.88 2.15a11.31 11.31 0 011.33 6 13.13 13.13 0 01-1.34 6.6 4.84 4.84 0 01-4.5 2.25 6 6 0 01-2.89-.67 4.83 4.83 0 01-1.86-1.81 6 6 0 01-.77-2.52h3c.24 1.6 1.07 2.4 2.52 2.4zm1.92-10.76a2.79 2.79 0 00-2.2-.84 2.67 2.67 0 00-2 .74 2.77 2.77 0 00-.72 2.05 2.88 2.88 0 00.75 2.13 2.75 2.75 0 002 .74 3.14 3.14 0 002-.7 2.43 2.43 0 00.86-2 3.08 3.08 0 00-.73-2.12zm13.59 1.67a2.54 2.54 0 00-.52-1.7 2 2 0 00-1.62-.62c-1.52 0-2.32 1-2.42 3.1H81.8a6.08 6.08 0 011.75-4.36 5.82 5.82 0 014.07-1.48 5.29 5.29 0 013.85 1.3 4.59 4.59 0 011.35 3.46 6.69 6.69 0 01-1 3.42 14.23 14.23 0 01-2.54 3.15A20.14 20.14 0 0186 33.22h7.1v2.65H81.71v-2.42q7.8-5.4 7.8-8.97z"/></svg>