<svg xmlns="http://www.w3.org/2000/svg" data-name="Слой 1" viewBox="0 0 444.64 213.85"><path d="M0 0h17.83v62h.28L42 33.88h21.1L39.64 60.77l24 40.19H43.48l-16.6-28.12-9 9.87V101H0zm72.14 13.72a11.39 11.39 0 0122.77 0 11.39 11.39 0 01-22.77 0zm2.19 20.16h18V101h-18zm32.92 33.74c0-20.71 14.4-34.7 35.11-34.7 10.43 0 21.4 3.84 28.4 12.07L159 56.1a19.56 19.56 0 00-15.4-7.1c-10.84 0-18.11 7.54-18.11 18.52S132.9 86 143.6 86a19.71 19.71 0 0015.77-7.26L171 90c-5.76 7.14-14.95 12.21-29.22 12.21-19.99-.02-34.53-14.01-34.53-34.59zM183.37 0h17.83v62h.27l23.87-28.12h21.12L223 60.77 247 101h-20.15l-16.6-28.12-9.05 9.87V101h-17.83zm65.96 67.62c0-20.3 13.58-34.7 31.55-34.7 7.82 0 14.95 3 19.76 8.78l.27-.14v-7.68h18V101h-17.18v-8l-.27-.14c-4.67 6-11.39 9.33-20.17 9.33-18.38 0-31.96-13.85-31.96-34.57zm52.4.14c0-10.83-7.41-18.79-17-18.79s-17.14 7.27-17.14 18.79c0 10.7 7 18.24 17.14 18.24 9.18 0 17-7.26 17-18.24zm28.8 24.55l8.64-12.48c5.48 5.08 11.24 7.68 18.65 7.68 5.21 0 8.09-2.19 8.09-5.48 0-2.88-3.43-4.39-12.07-7.27-11.11-3.71-20.71-8.92-20.71-22 0-12.07 10.43-19.89 24.28-19.89a37.68 37.68 0 0124.41 8.37l-8.77 13.3c-5.05-4.88-11.11-7.08-16.05-7.08-2.75 0-6.31 1.37-6.31 4.94 0 2.74 3.29 4.66 9.88 7.13 14.53 5.35 23 8.51 23 21.81 0 11.8-8.37 20.85-25.93 20.85a40.48 40.48 0 01-27.11-9.88zm61.03 0l8.64-12.48c5.48 5.08 11.24 7.68 18.65 7.68 5.21 0 8.1-2.19 8.1-5.48 0-2.88-3.43-4.39-12.08-7.27-11.11-3.71-20.71-8.92-20.71-22 0-12.07 10.43-19.89 24.28-19.89a37.68 37.68 0 0124.41 8.37l-8.77 13.3C429 49.66 423 47.46 418 47.46c-2.75 0-6.31 1.37-6.31 4.94 0 2.74 3.29 4.66 9.88 7.13 14.54 5.35 23 8.51 23 21.81 0 11.8-8.37 20.85-25.93 20.85a40.48 40.48 0 01-27.08-9.88zM26.35 203.19l4.76-6.5C35.44 202.9 41.9 206 47.76 206c7.39 0 12.41-3.88 12.41-10.57 0-7.65-5.44-9.69-13.51-13.18-8.93-3.77-18-8.13-18-20.25a18.09 18.09 0 0118.44-18.22c6.71 0 13.34 2.81 19 8.05l-4.5 6.68c-4.84-4.55-10-7-14.53-7-5.69 0-10.7 3.48-10.79 10.07s5.35 9 12.92 12.31c10.11 4.56 18.69 7.66 18.69 20.55 0 12.59-9.69 19.38-20.23 19.38-7.55.03-15.28-3.27-21.31-10.63zM100 178.86c0-20.44 12.74-35.08 30.33-35.08 16.91 0 30.08 14.05 30.08 35.08s-13.17 35-30.08 35c-17.56-.01-30.33-14.55-30.33-35zm52.68 0c0-16-9.86-27.13-22.35-27.13-13.08 0-22.6 11.53-22.6 27.13s9.52 27 22.6 27c12.52.04 22.38-11.1 22.38-27zm40.58.2c0-19.48 10.71-35.28 30-35.28 8.66 0 17.16 4.27 23.53 13.18l-5.52 5.24c-5-7.08-11.22-10.37-18-10.37-13.69 0-22.27 11.43-22.27 27.23 0 16.47 9.61 26.74 22.35 26.74 7.82 0 13.77-4.26 18-10.37l5.53 5.33c-5.27 7.47-12.92 13-23.54 13-16.34-.01-30.08-12.22-30.08-34.7zm87.74-34.6h7.39v68.81H281zm63.36 0h7.4l22.94 68.81H367l-5.43-16.77h-26.98l-5.35 16.77h-7.73zm14.87 44.68l-11.13-34.5h-.17l-11 34.5zm48.19-44.68h7.4v61.15h29.82v7.66h-37.22z" fill="#fff"/></svg>